<svg width="28" height="28" viewBox="0 0 28 28" fill="none" xmlns="http://www.w3.org/2000/svg">
<path d="M0 14C0 6.26801 6.26801 0 14 0C21.732 0 28 6.26801 28 14C28 21.732 21.732 28 14 28C6.26801 28 0 21.732 0 14Z" fill="#E8F6E4"/>
<path d="M10.0714 10.0714V17.9286H17.9286V10.0714H10.0714ZM9 9H10.0714H17.9286H19V10.0714V17.9286V19H17.9286H10.0714H9V17.9286V10.0714V9ZM16.5223 12.9509L13.6652 15.808L13.2857 16.1875L12.9062 15.808L11.4777 14.3795L11.0982 14L11.8571 13.2433L12.2366 13.6228L13.2857 14.6719L15.7634 12.192L16.1429 11.8125L16.8996 12.5714L16.5201 12.9509H16.5223Z" fill="#66C149"/>
</svg>
