<svg width="105" height="42" viewBox="0 0 105 42" fill="none" xmlns="http://www.w3.org/2000/svg">
<path d="M0 21C0 9.40202 9.40202 0 21 0H84C95.598 0 105 9.40202 105 21C105 32.598 95.598 42 84 42H21C9.40202 42 0 32.598 0 21Z" fill="#E8F6E4"/>
<path d="M18.875 14.125V27.875H32.625V14.125H18.875ZM17 12.25H18.875H32.625H34.5V14.125V27.875V29.75H32.625H18.875H17V27.875V14.125V12.25ZM30.1641 19.1641L25.1641 24.1641L24.5 24.8281L23.8359 24.1641L21.3359 21.6641L20.6719 21L22 19.6758L22.6641 20.3398L24.5 22.1758L28.8359 17.8359L29.5 17.1719L30.8242 18.5L30.1602 19.1641H30.1641Z" fill="#66C149"/>
<path d="M45.746 14.238H53.828V15.714H47.348V19.872H53.108V21.384H47.348V27H45.746V14.238ZM55.709 17.91H57.275V27H55.709V17.91ZM55.601 14.004H57.383V15.804H55.601V14.004ZM62.4895 22.338L59.3935 17.91H61.2295L63.5695 21.312L65.8195 17.91H67.6195L64.5055 22.374L67.7095 27H65.8555L63.4795 23.436L61.1215 27H59.3575L62.4895 22.338ZM73.2347 27.252C71.9207 27.252 70.7867 26.73 70.0487 25.884C69.2747 25.002 68.8967 23.796 68.8967 22.5C68.8967 21.402 69.0947 20.43 69.6167 19.584C70.2827 18.486 71.5067 17.658 73.1267 17.658C75.6107 17.658 77.1227 19.638 77.1227 22.05C77.1227 22.338 77.1227 22.698 77.0867 22.968H70.4987C70.4987 24.66 71.5247 25.902 73.2527 25.902C74.2967 25.902 75.1427 25.38 75.4487 24.3H76.9787C76.7267 26.028 75.0887 27.252 73.2347 27.252ZM70.5347 21.654H75.5567C75.5567 20.088 74.6927 18.954 73.0907 18.954C71.4167 18.954 70.5707 20.322 70.5347 21.654ZM83.1771 27.252C82.0431 27.252 81.1611 26.838 80.5311 26.244C79.5951 25.362 79.1271 23.994 79.1271 22.464C79.1271 20.898 79.6131 19.458 80.6211 18.576C81.2691 18.018 82.1331 17.658 83.2311 17.658C84.3831 17.658 85.4631 18.18 85.8231 18.954V13.968H87.3531V27H86.0031L85.8951 25.632C85.4451 26.712 84.2391 27.252 83.1771 27.252ZM83.3391 25.956C84.0231 25.956 84.5271 25.668 84.9231 25.326C85.6791 24.678 85.8951 23.58 85.8951 22.446C85.8951 21.312 85.6971 20.214 84.9231 19.548C84.5451 19.224 84.0411 18.954 83.3571 18.954C82.5651 18.954 82.0071 19.206 81.5931 19.638C80.9451 20.304 80.6931 21.42 80.6931 22.446C80.6931 23.454 80.9091 24.498 81.5031 25.182C81.9171 25.65 82.5111 25.956 83.3391 25.956Z" fill="#070807"/>
</svg>
