<svg width="28" height="28" viewBox="0 0 28 28" fill="none" xmlns="http://www.w3.org/2000/svg">
<path d="M0 14C0 6.26801 6.26801 0 14 0C21.732 0 28 6.26801 28 14C28 21.732 21.732 28 14 28C6.26801 28 0 21.732 0 14Z" fill="#F9E0E4"/>
<path d="M10.0714 10.0714V17.9286H17.9286V10.0714H10.0714ZM9 9H10.0714H17.9286H19V10.0714V17.9286V19H17.9286H10.0714H9V17.9286V10.0714V9ZM16.1853 12.5714L15.8058 12.9509L14.7567 14L15.8058 15.0491L16.1853 15.4286L15.4286 16.1853L15.0491 15.8058L14 14.7567L12.9509 15.8058L12.5714 16.1853L11.8147 15.4286L12.1942 15.0491L13.2433 14L12.1942 12.9509L11.8147 12.5714L12.5714 11.8147L12.9509 12.1942L14 13.2433L15.0491 12.1942L15.4286 11.8147L16.1853 12.5714Z" fill="#D72E4E"/>
</svg>
