<svg width="140" height="42" viewBox="0 0 140 42" fill="none" xmlns="http://www.w3.org/2000/svg">
<path d="M0 21C0 9.40202 9.40202 0 21 0H119C130.598 0 140 9.40202 140 21C140 32.598 130.598 42 119 42H21C9.40202 42 0 32.598 0 21Z" fill="#F9E0E4"/>
<path d="M18.875 13.875V27.625H32.625V13.875H18.875ZM17 12H18.875H32.625H34.5V13.875V27.625V29.5H32.625H18.875H17V27.625V13.875V12ZM29.5742 18.25L28.9102 18.9141L27.0742 20.75L28.9102 22.5859L29.5742 23.25L28.25 24.5742L27.5859 23.9102L25.75 22.0742L23.9141 23.9102L23.25 24.5742L21.9258 23.25L22.5898 22.5859L24.4258 20.75L22.5898 18.9141L21.9258 18.25L23.25 16.9258L23.9141 17.5898L25.75 19.4258L27.5859 17.5898L28.25 16.9258L29.5742 18.25Z" fill="#D72E4E"/>
<path d="M53.81 14.238H55.358V27H53.558L47.294 16.146V27H45.746V14.238H47.852L53.81 24.552V14.238ZM62.1918 27.252C61.0038 27.252 60.0498 26.838 59.3658 26.19C58.3398 25.218 58.0338 23.886 58.0338 22.446C58.0338 21.006 58.3398 19.692 59.3658 18.72C60.0498 18.072 61.0038 17.658 62.1918 17.658C63.3798 17.658 64.3338 18.072 65.0178 18.72C66.0438 19.692 66.3498 21.006 66.3498 22.446C66.3498 23.886 66.0438 25.218 65.0178 26.19C64.3338 26.838 63.3798 27.252 62.1918 27.252ZM62.1918 25.938C62.9298 25.938 63.5238 25.668 63.9018 25.29C64.5678 24.624 64.7838 23.652 64.7838 22.446C64.7838 21.24 64.5678 20.286 63.9018 19.62C63.5238 19.242 62.9298 18.972 62.1918 18.972C61.4538 18.972 60.8598 19.242 60.4818 19.62C59.8158 20.286 59.5998 21.24 59.5998 22.446C59.5998 23.652 59.8158 24.624 60.4818 25.29C60.8598 25.668 61.4538 25.938 62.1918 25.938ZM72.3323 27.108C70.3703 27.108 69.7223 25.74 69.7223 24.516V19.224H67.7243V17.91H69.7223V15.498L71.2523 15.138V17.91H73.8443V19.224H71.2523V24.336C71.2523 25.272 71.7383 25.704 72.5843 25.704C73.1063 25.704 73.6103 25.614 73.9343 25.524V26.838C73.5923 26.964 73.1063 27.108 72.3323 27.108ZM80.498 14.238H88.58V15.714H82.1V19.872H87.86V21.384H82.1V27H80.498V14.238ZM90.461 17.91H92.027V27H90.461V17.91ZM90.353 14.004H92.135V15.804H90.353V14.004ZM97.2415 22.338L94.1455 17.91H95.9815L98.3215 21.312L100.571 17.91H102.371L99.2575 22.374L102.461 27H100.607L98.2315 23.436L95.8735 27H94.1095L97.2415 22.338ZM107.987 27.252C106.673 27.252 105.539 26.73 104.801 25.884C104.027 25.002 103.649 23.796 103.649 22.5C103.649 21.402 103.847 20.43 104.369 19.584C105.035 18.486 106.259 17.658 107.879 17.658C110.363 17.658 111.875 19.638 111.875 22.05C111.875 22.338 111.875 22.698 111.839 22.968H105.251C105.251 24.66 106.277 25.902 108.005 25.902C109.049 25.902 109.895 25.38 110.201 24.3H111.731C111.479 26.028 109.841 27.252 107.987 27.252ZM105.287 21.654H110.309C110.309 20.088 109.445 18.954 107.843 18.954C106.169 18.954 105.323 20.322 105.287 21.654ZM117.929 27.252C116.795 27.252 115.913 26.838 115.283 26.244C114.347 25.362 113.879 23.994 113.879 22.464C113.879 20.898 114.365 19.458 115.373 18.576C116.021 18.018 116.885 17.658 117.983 17.658C119.135 17.658 120.215 18.18 120.575 18.954V13.968H122.105V27H120.755L120.647 25.632C120.197 26.712 118.991 27.252 117.929 27.252ZM118.091 25.956C118.775 25.956 119.279 25.668 119.675 25.326C120.431 24.678 120.647 23.58 120.647 22.446C120.647 21.312 120.449 20.214 119.675 19.548C119.297 19.224 118.793 18.954 118.109 18.954C117.317 18.954 116.759 19.206 116.345 19.638C115.697 20.304 115.445 21.42 115.445 22.446C115.445 23.454 115.661 24.498 116.255 25.182C116.669 25.65 117.263 25.956 118.091 25.956Z" fill="#070807"/>
</svg>
