<svg width="28" height="28" viewBox="0 0 28 28" fill="none" xmlns="http://www.w3.org/2000/svg">
<path d="M0 14C0 6.26801 6.26801 0 14 0C21.732 0 28 6.26801 28 14C28 21.732 21.732 28 14 28C6.26801 28 0 21.732 0 14Z" fill="#FEE7DE"/>
<g clip-path="url(#clip0_59_538)">
<path d="M8 14L9.06172 15.0617L12.9383 18.9383L14 20L15.0617 18.9383L18.9383 15.0617L20 14L18.9383 12.9383L15.0617 9.06172L14 8L12.9383 9.06172L9.06172 12.9383L8 14ZM14 17.8789V10.1211L17.8789 14L14 17.8789Z" fill="#FB6023"/>
</g>
<defs>
<clipPath id="clip0_59_538">
<rect width="12" height="12" fill="white" transform="translate(8 8)"/>
</clipPath>
</defs>
</svg>
