<svg width="116" height="42" viewBox="0 0 116 42" fill="none" xmlns="http://www.w3.org/2000/svg">
<path d="M0 21C0 9.40202 9.40202 0 21 0H95C106.598 0 116 9.40202 116 21C116 32.598 106.598 42 95 42H21C9.40202 42 0 32.598 0 21Z" fill="#FEE7DE"/>
<g clip-path="url(#clip0_59_535)">
<path d="M16 21L17.7695 22.7695L24.2305 29.2305L26 31L27.7695 29.2305L34.2305 22.7695L36 21L34.2305 19.2305L27.7695 12.7695L26 11L24.2305 12.7695L17.7695 19.2305L16 21ZM26 27.4648V14.5352L32.4648 21L26 27.4648Z" fill="#FB6023"/>
</g>
<path d="M45.746 14.238H50.372C52.982 14.238 54.692 15.606 54.692 18.036C54.692 20.466 52.982 21.834 50.372 21.834H47.348V27H45.746V14.238ZM50.336 20.376C52.046 20.376 53.036 19.602 53.036 18.036C53.036 16.47 52.046 15.696 50.336 15.696H47.348V20.376H50.336ZM59.1405 27.252C57.0525 27.252 56.0085 25.848 56.0085 24.444C56.0085 23.274 56.7645 21.726 59.2485 21.582L62.0205 21.42V20.79C62.0205 19.494 61.3545 18.9 60.0405 18.9C58.7985 18.9 57.9525 19.53 57.9525 20.556H56.4585C56.4945 18.702 58.0605 17.658 60.0405 17.658C62.1645 17.658 63.5325 18.774 63.5325 20.808V25.218C63.5325 25.704 63.7305 25.83 64.0365 25.83C64.1085 25.83 64.2885 25.812 64.4325 25.776V26.91C64.1085 27.072 63.8025 27.126 63.4245 27.126C62.6145 27.126 62.0925 26.514 62.0925 25.74C61.5525 26.622 60.4365 27.252 59.1405 27.252ZM59.3745 25.974C61.0305 25.974 62.0205 24.732 62.0205 23.148V22.608L59.3925 22.752C58.4925 22.806 57.5745 23.292 57.5745 24.408C57.5745 25.164 58.0785 25.974 59.3745 25.974ZM66.8008 27V17.91H68.1688L68.2948 19.494C68.7628 18.324 69.8608 17.838 71.0128 17.838C71.2468 17.838 71.4988 17.856 71.7328 17.892V19.422C71.5348 19.368 71.3008 19.332 71.0128 19.332C69.0148 19.332 68.3308 20.826 68.3308 22.59V27H66.8008ZM77.4299 27.108C75.4679 27.108 74.8199 25.74 74.8199 24.516V19.224H72.8219V17.91H74.8199V15.498L76.3499 15.138V17.91H78.9419V19.224H76.3499V24.336C76.3499 25.272 76.8359 25.704 77.6819 25.704C78.2039 25.704 78.7079 25.614 79.0319 25.524V26.838C78.6899 26.964 78.2039 27.108 77.4299 27.108ZM81.2852 17.91H82.8512V27H81.2852V17.91ZM81.1772 14.004H82.9592V15.804H81.1772V14.004ZM88.4257 27.252C86.3377 27.252 85.2937 25.848 85.2937 24.444C85.2937 23.274 86.0497 21.726 88.5337 21.582L91.3057 21.42V20.79C91.3057 19.494 90.6397 18.9 89.3257 18.9C88.0837 18.9 87.2377 19.53 87.2377 20.556H85.7437C85.7797 18.702 87.3457 17.658 89.3257 17.658C91.4497 17.658 92.8177 18.774 92.8177 20.808V25.218C92.8177 25.704 93.0157 25.83 93.3217 25.83C93.3937 25.83 93.5737 25.812 93.7177 25.776V26.91C93.3937 27.072 93.0877 27.126 92.7097 27.126C91.8997 27.126 91.3777 26.514 91.3777 25.74C90.8377 26.622 89.7217 27.252 88.4257 27.252ZM88.6597 25.974C90.3157 25.974 91.3057 24.732 91.3057 23.148V22.608L88.6777 22.752C87.7777 22.806 86.8597 23.292 86.8597 24.408C86.8597 25.164 87.3637 25.974 88.6597 25.974ZM97.9069 27.126C96.6469 27.126 95.9089 26.424 95.9089 24.984V13.968H97.4389V24.804C97.4389 25.416 97.6369 25.74 98.2669 25.74C98.3749 25.74 98.5189 25.74 98.8969 25.704V27C98.5729 27.09 98.3569 27.126 97.9069 27.126Z" fill="#070807"/>
<defs>
<clipPath id="clip0_59_535">
<rect width="20" height="20" fill="white" transform="translate(16 11)"/>
</clipPath>
</defs>
</svg>
