<svg width="139" height="42" viewBox="0 0 139 42" fill="none" xmlns="http://www.w3.org/2000/svg">
<path d="M0 21C0 9.40202 9.40202 0 21 0H118C129.598 0 139 9.40202 139 21C139 32.598 129.598 42 118 42H21C9.40202 42 0 32.598 0 21Z" fill="#F6F6F5"/>
<path d="M32.625 14.125V27.875H18.875V14.125H32.625ZM18.875 12.25H17V14.125V27.875V29.75H18.875H32.625H34.5V27.875V14.125V12.25H32.625H18.875Z" fill="#454240"/>
<path d="M45.746 14.238H50.75C53.342 14.238 54.998 15.642 54.998 17.964C54.998 19.584 54.062 20.898 52.28 21.42L55.016 27H53.216L50.66 21.69H47.348V27H45.746V14.238ZM50.75 20.196C52.262 20.196 53.342 19.584 53.342 17.964C53.342 16.344 52.262 15.714 50.75 15.714H47.348V20.196H50.75ZM61.1761 27.252C59.8621 27.252 58.7281 26.73 57.9901 25.884C57.2161 25.002 56.8381 23.796 56.8381 22.5C56.8381 21.402 57.0361 20.43 57.5581 19.584C58.2241 18.486 59.4481 17.658 61.0681 17.658C63.5521 17.658 65.0641 19.638 65.0641 22.05C65.0641 22.338 65.0641 22.698 65.0281 22.968H58.4401C58.4401 24.66 59.4661 25.902 61.1941 25.902C62.2381 25.902 63.0841 25.38 63.3901 24.3H64.9201C64.6681 26.028 63.0301 27.252 61.1761 27.252ZM58.4761 21.654H63.4981C63.4981 20.088 62.6341 18.954 61.0321 18.954C59.3581 18.954 58.5121 20.322 58.4761 21.654ZM67.6445 30.888V17.91H68.9945L69.1025 19.26C69.4985 18.198 70.8305 17.658 71.8925 17.658C73.0265 17.658 73.9265 18.036 74.5385 18.648C75.4205 19.53 75.8705 20.862 75.8705 22.428C75.8705 23.994 75.4205 25.416 74.4665 26.298C73.8545 26.856 72.9725 27.252 71.8925 27.252C70.7765 27.252 69.6245 26.802 69.1745 25.884V30.888H67.6445ZM71.6405 25.956C72.5045 25.956 73.0985 25.632 73.5125 25.146C74.1065 24.462 74.3045 23.436 74.3045 22.446C74.3045 21.474 74.1065 20.466 73.5485 19.782C73.1345 19.278 72.5225 18.954 71.6405 18.954C70.9565 18.954 70.4885 19.224 70.1105 19.548C69.3365 20.214 69.1025 21.312 69.1025 22.446C69.1025 23.58 69.3365 24.678 70.1105 25.344C70.4885 25.668 70.9565 25.956 71.6405 25.956ZM82.0727 27.252C80.8847 27.252 79.9307 26.838 79.2467 26.19C78.2207 25.218 77.9147 23.886 77.9147 22.446C77.9147 21.006 78.2207 19.692 79.2467 18.72C79.9307 18.072 80.8847 17.658 82.0727 17.658C83.2607 17.658 84.2147 18.072 84.8987 18.72C85.9247 19.692 86.2307 21.006 86.2307 22.446C86.2307 23.886 85.9247 25.218 84.8987 26.19C84.2147 26.838 83.2607 27.252 82.0727 27.252ZM82.0727 25.938C82.8107 25.938 83.4047 25.668 83.7827 25.29C84.4487 24.624 84.6647 23.652 84.6647 22.446C84.6647 21.24 84.4487 20.286 83.7827 19.62C83.4047 19.242 82.8107 18.972 82.0727 18.972C81.3347 18.972 80.7407 19.242 80.3627 19.62C79.6967 20.286 79.4807 21.24 79.4807 22.446C79.4807 23.652 79.6967 24.624 80.3627 25.29C80.7407 25.668 81.3347 25.938 82.0727 25.938ZM88.8438 27V17.91H90.2118L90.3378 19.494C90.8058 18.324 91.9038 17.838 93.0558 17.838C93.2898 17.838 93.5418 17.856 93.7758 17.892V19.422C93.5778 19.368 93.3438 19.332 93.0558 19.332C91.0578 19.332 90.3738 20.826 90.3738 22.59V27H88.8438ZM99.4729 27.108C97.5109 27.108 96.8629 25.74 96.8629 24.516V19.224H94.8649V17.91H96.8629V15.498L98.3929 15.138V17.91H100.985V19.224H98.3929V24.336C98.3929 25.272 98.8789 25.704 99.7249 25.704C100.247 25.704 100.751 25.614 101.075 25.524V26.838C100.733 26.964 100.247 27.108 99.4729 27.108ZM106.967 27.252C105.653 27.252 104.519 26.73 103.781 25.884C103.007 25.002 102.629 23.796 102.629 22.5C102.629 21.402 102.827 20.43 103.349 19.584C104.015 18.486 105.239 17.658 106.859 17.658C109.343 17.658 110.855 19.638 110.855 22.05C110.855 22.338 110.855 22.698 110.819 22.968H104.231C104.231 24.66 105.257 25.902 106.985 25.902C108.029 25.902 108.875 25.38 109.181 24.3H110.711C110.459 26.028 108.821 27.252 106.967 27.252ZM104.267 21.654H109.289C109.289 20.088 108.425 18.954 106.823 18.954C105.149 18.954 104.303 20.322 104.267 21.654ZM116.91 27.252C115.776 27.252 114.894 26.838 114.264 26.244C113.328 25.362 112.86 23.994 112.86 22.464C112.86 20.898 113.346 19.458 114.354 18.576C115.002 18.018 115.866 17.658 116.964 17.658C118.116 17.658 119.196 18.18 119.556 18.954V13.968H121.086V27H119.736L119.628 25.632C119.178 26.712 117.972 27.252 116.91 27.252ZM117.072 25.956C117.756 25.956 118.26 25.668 118.656 25.326C119.412 24.678 119.628 23.58 119.628 22.446C119.628 21.312 119.43 20.214 118.656 19.548C118.278 19.224 117.774 18.954 117.09 18.954C116.298 18.954 115.74 19.206 115.326 19.638C114.678 20.304 114.426 21.42 114.426 22.446C114.426 23.454 114.642 24.498 115.236 25.182C115.65 25.65 116.244 25.956 117.072 25.956Z" fill="#070807"/>
</svg>
