<svg width="28" height="28" viewBox="0 0 28 28" fill="none" xmlns="http://www.w3.org/2000/svg">
<path d="M0 14C0 6.26801 6.26801 0 14 0C21.732 0 28 6.26801 28 14C28 21.732 21.732 28 14 28C6.26801 28 0 21.732 0 14Z" fill="#F9E0E4"/>
<g clip-path="url(#clip0_59_470)">
<path d="M14.5714 8.57396L14 8L13.4286 8.57396L8.57396 13.4286L8 14L9.14539 15.1454L9.71681 14.574L14 10.2908L18.2832 14.5714L18.8546 15.1454L20 14L19.4286 13.4286L14.574 8.57396H14.5714ZM14.5714 13.4286L14 12.8546L13.4286 13.426L8.57396 18.2807L8 18.8546L9.14539 20L9.71681 19.4286L14 15.1454L18.2832 19.426L18.8546 20L20 18.8546L19.4286 18.2832L14.574 13.4286H14.5714Z" fill="#D72E4E"/>
</g>
<defs>
<clipPath id="clip0_59_470">
<rect width="12" height="12" fill="white" transform="translate(8 8)"/>
</clipPath>
</defs>
</svg>
