<svg width="121" height="42" viewBox="0 0 121 42" fill="none" xmlns="http://www.w3.org/2000/svg">
<path d="M0 21C0 9.40202 9.40202 0 21 0H100C111.598 0 121 9.40202 121 21C121 32.598 111.598 42 100 42H21C9.40202 42 0 32.598 0 21Z" fill="#F9E0E4"/>
<path d="M26.8571 12.8609L26 12L25.1429 12.8609L17.8609 20.1429L17 21L18.7181 22.7181L19.5752 21.8609L26 15.4362L32.4248 21.8571L33.2819 22.7181L35 21L34.1429 20.1429L26.8609 12.8609H26.8571ZM26.8571 20.1429L26 19.2819L25.1429 20.1391L17.8609 27.421L17 28.2819L18.7181 30L19.5752 29.1429L26 22.7181L32.4248 29.1391L33.2819 30L35 28.2819L34.1429 27.4248L26.8609 20.1429H26.8571Z" fill="#D72E4E"/>
<path d="M50.282 27.252C48.968 27.252 47.708 26.838 46.772 25.938C45.35 24.57 45.026 22.662 45.026 20.628C45.026 18.594 45.35 16.704 46.772 15.354C47.708 14.454 48.968 13.986 50.282 13.986C52.838 13.986 54.926 15.732 55.034 18.234H53.396C53.306 16.614 51.974 15.498 50.282 15.498C49.346 15.498 48.482 15.822 47.87 16.47C46.808 17.568 46.682 19.296 46.682 20.628C46.682 21.96 46.808 23.67 47.87 24.768C48.482 25.416 49.4 25.74 50.282 25.74C52.1 25.74 53.288 24.624 53.414 22.932H55.052C54.926 25.524 52.766 27.252 50.282 27.252ZM57.4317 27V17.91H58.7997L58.9257 19.494C59.3937 18.324 60.4917 17.838 61.6437 17.838C61.8777 17.838 62.1297 17.856 62.3637 17.892V19.422C62.1657 19.368 61.9317 19.332 61.6437 19.332C59.6457 19.332 58.9617 20.826 58.9617 22.59V27H57.4317ZM64.4629 17.91H66.0289V27H64.4629V17.91ZM64.3549 14.004H66.1369V15.804H64.3549V14.004ZM72.7014 27.108C70.7394 27.108 70.0914 25.74 70.0914 24.516V19.224H68.0934V17.91H70.0914V15.498L71.6214 15.138V17.91H74.2134V19.224H71.6214V24.336C71.6214 25.272 72.1074 25.704 72.9534 25.704C73.4754 25.704 73.9794 25.614 74.3034 25.524V26.838C73.9614 26.964 73.4754 27.108 72.7014 27.108ZM76.5567 17.91H78.1227V27H76.5567V17.91ZM76.4487 14.004H78.2307V15.804H76.4487V14.004ZM84.8672 27.252C83.6432 27.252 82.6712 26.856 81.9692 26.136C81.1412 25.29 80.7272 24.012 80.7272 22.446C80.7272 20.97 81.1412 19.764 81.8612 18.936C82.6172 18.072 83.6252 17.658 84.9212 17.658C87.1352 17.658 88.5032 19.08 88.6112 20.97H87.0632C86.9192 19.692 86.0192 18.99 84.8492 18.99C84.0032 18.99 83.3912 19.35 82.9772 19.872C82.4912 20.484 82.2932 21.366 82.2932 22.446C82.2932 23.562 82.4912 24.498 82.9952 25.092C83.4272 25.614 84.0392 25.92 84.8492 25.92C86.0552 25.92 86.9732 25.164 87.0992 23.958H88.6472C88.5032 25.92 86.9012 27.252 84.8672 27.252ZM93.5233 27.252C91.4353 27.252 90.3913 25.848 90.3913 24.444C90.3913 23.274 91.1473 21.726 93.6313 21.582L96.4033 21.42V20.79C96.4033 19.494 95.7373 18.9 94.4233 18.9C93.1813 18.9 92.3353 19.53 92.3353 20.556H90.8413C90.8773 18.702 92.4433 17.658 94.4233 17.658C96.5473 17.658 97.9153 18.774 97.9153 20.808V25.218C97.9153 25.704 98.1133 25.83 98.4193 25.83C98.4913 25.83 98.6713 25.812 98.8153 25.776V26.91C98.4913 27.072 98.1853 27.126 97.8073 27.126C96.9973 27.126 96.4753 26.514 96.4753 25.74C95.9353 26.622 94.8193 27.252 93.5233 27.252ZM93.7573 25.974C95.4133 25.974 96.4033 24.732 96.4033 23.148V22.608L93.7753 22.752C92.8753 22.806 91.9573 23.292 91.9573 24.408C91.9573 25.164 92.4613 25.974 93.7573 25.974ZM103.005 27.126C101.745 27.126 101.007 26.424 101.007 24.984V13.968H102.537V24.804C102.537 25.416 102.735 25.74 103.365 25.74C103.473 25.74 103.617 25.74 103.995 25.704V27C103.671 27.09 103.455 27.126 103.005 27.126Z" fill="#070807"/>
</svg>
