<svg width="99" height="42" viewBox="0 0 99 42" fill="none" xmlns="http://www.w3.org/2000/svg">
<path d="M0 21C0 9.40202 9.40202 0 21 0H78C89.598 0 99 9.40202 99 21C99 32.598 89.598 42 78 42H21C9.40202 42 0 32.598 0 21Z" fill="#FEE7DE"/>
<path d="M26 15L26.8571 15.8828L34.1391 23.3828L35 24.2695L33.2819 26.0391L32.4248 25.1562L26 18.5391L19.5752 25.1523L18.7181 26.0391L17 24.2695L17.8571 23.3867L25.1391 15.8867L26 15Z" fill="#FB6023"/>
<path d="M45.746 14.238H47.348V19.602H53.468V14.238H55.07V27H53.468V21.15H47.348V27H45.746V14.238ZM58.3985 17.91H59.9645V27H58.3985V17.91ZM58.2905 14.004H60.0725V15.804H58.2905V14.004ZM66.493 31.14C64.243 31.14 62.317 30.42 62.317 28.494C62.317 27.54 62.947 26.874 63.685 26.55C63.127 26.298 62.749 25.794 62.749 25.092C62.749 24.282 63.379 23.634 64.027 23.346C63.343 22.842 62.893 21.852 62.893 20.952C62.893 18.936 64.423 17.658 66.493 17.658C67.357 17.658 68.059 17.856 68.617 18.198C68.923 17.388 69.625 16.902 70.489 16.902C70.651 16.902 70.813 16.92 70.939 16.938V18.198C70.831 18.18 70.723 18.18 70.597 18.18C70.003 18.18 69.571 18.504 69.481 19.008C69.859 19.494 70.075 20.088 70.075 20.898C70.075 22.842 68.563 24.156 66.493 24.156C65.899 24.156 65.359 24.066 64.891 23.868C64.513 23.976 64.135 24.372 64.135 24.786C64.135 25.398 64.657 25.56 65.233 25.56H67.213C68.293 25.56 69.535 25.758 70.255 26.496C70.687 26.928 70.975 27.522 70.975 28.278C70.975 30.384 68.851 31.14 66.493 31.14ZM66.583 29.844C67.969 29.844 69.481 29.574 69.481 28.278C69.481 26.928 68.131 26.856 67.033 26.856H64.927C64.243 27.036 63.739 27.576 63.739 28.278C63.739 29.664 65.233 29.844 66.583 29.844ZM66.493 22.932C67.771 22.932 68.599 22.05 68.599 20.898C68.599 19.746 67.825 18.9 66.493 18.9C65.215 18.9 64.387 19.746 64.387 20.898C64.387 22.05 65.161 22.932 66.493 22.932ZM73.1113 13.968H74.6413V19.116C75.1633 18.162 76.4053 17.658 77.3773 17.658C79.4473 17.658 80.5813 18.882 80.5813 21.006V27H79.0513V21.222C79.0513 19.854 78.4393 19.044 77.0533 19.044C75.5413 19.044 74.6413 20.376 74.6413 22.14V27H73.1113V13.968Z" fill="#070807"/>
</svg>
