<svg width="94" height="42" viewBox="0 0 94 42" fill="none" xmlns="http://www.w3.org/2000/svg">
<path d="M0 21C0 9.40202 9.40202 0 21 0H73C84.598 0 94 9.40202 94 21C94 32.598 84.598 42 73 42H21C9.40202 42 0 32.598 0 21Z" fill="#E8F6E4"/>
<path d="M26 26.0391L26.8571 25.1562L34.1391 17.6562L35 16.7695L33.2819 15L32.4248 15.8828L26 22.5L19.5752 15.8867L18.7181 15L17 16.7695L17.8571 17.6523L25.1391 25.1523L26 26.0391Z" fill="#66C149"/>
<path d="M45.746 14.238H47.348V25.506H53.486V27H45.746V14.238ZM58.7641 27.252C57.5761 27.252 56.6221 26.838 55.9381 26.19C54.9121 25.218 54.6061 23.886 54.6061 22.446C54.6061 21.006 54.9121 19.692 55.9381 18.72C56.6221 18.072 57.5761 17.658 58.7641 17.658C59.9521 17.658 60.9061 18.072 61.5901 18.72C62.6161 19.692 62.9221 21.006 62.9221 22.446C62.9221 23.886 62.6161 25.218 61.5901 26.19C60.9061 26.838 59.9521 27.252 58.7641 27.252ZM58.7641 25.938C59.5021 25.938 60.0961 25.668 60.4741 25.29C61.1401 24.624 61.3561 23.652 61.3561 22.446C61.3561 21.24 61.1401 20.286 60.4741 19.62C60.0961 19.242 59.5021 18.972 58.7641 18.972C58.0261 18.972 57.4321 19.242 57.0541 19.62C56.3881 20.286 56.1721 21.24 56.1721 22.446C56.1721 23.652 56.3881 24.624 57.0541 25.29C57.4321 25.668 58.0261 25.938 58.7641 25.938ZM75.6152 17.91H77.1632L74.7332 27H73.2392L70.8092 19.944L68.2892 27H66.8312L64.4192 17.91H65.9852L67.7492 24.768L70.1432 18H71.4752L73.8332 24.768L75.6152 17.91Z" fill="#070807"/>
</svg>
