<svg width="128" height="42" viewBox="0 0 128 42" fill="none" xmlns="http://www.w3.org/2000/svg">
<path d="M0 21C0 9.40202 9.40202 0 21 0H107C118.598 0 128 9.40202 128 21C128 32.598 118.598 42 107 42H21C9.40202 42 0 32.598 0 21Z" fill="#F8F5DE"/>
<path d="M19.2308 16H18V18.5H19.2308H32.7692H34V16H32.7692H19.2308ZM19.2308 23.5H18V26H19.2308H32.7692H34V23.5H32.7692H19.2308Z" fill="#D2BD23"/>
<path d="M55.664 14.238H57.986V27H56.456V16.074L52.514 26.82H51.218L47.276 15.984V27H45.746V14.238H48.122L51.902 24.624L55.664 14.238ZM64.9905 27.252C63.6765 27.252 62.5425 26.73 61.8045 25.884C61.0305 25.002 60.6525 23.796 60.6525 22.5C60.6525 21.402 60.8505 20.43 61.3725 19.584C62.0385 18.486 63.2625 17.658 64.8825 17.658C67.3665 17.658 68.8785 19.638 68.8785 22.05C68.8785 22.338 68.8785 22.698 68.8425 22.968H62.2545C62.2545 24.66 63.2805 25.902 65.0085 25.902C66.0525 25.902 66.8985 25.38 67.2045 24.3H68.7345C68.4825 26.028 66.8445 27.252 64.9905 27.252ZM62.2905 21.654H67.3125C67.3125 20.088 66.4485 18.954 64.8465 18.954C63.1725 18.954 62.3265 20.322 62.2905 21.654ZM74.933 27.252C73.799 27.252 72.917 26.838 72.287 26.244C71.351 25.362 70.883 23.994 70.883 22.464C70.883 20.898 71.369 19.458 72.377 18.576C73.025 18.018 73.889 17.658 74.987 17.658C76.139 17.658 77.219 18.18 77.579 18.954V13.968H79.109V27H77.759L77.651 25.632C77.201 26.712 75.995 27.252 74.933 27.252ZM75.095 25.956C75.779 25.956 76.283 25.668 76.679 25.326C77.435 24.678 77.651 23.58 77.651 22.446C77.651 21.312 77.453 20.214 76.679 19.548C76.301 19.224 75.797 18.954 75.113 18.954C74.321 18.954 73.763 19.206 73.349 19.638C72.701 20.304 72.449 21.42 72.449 22.446C72.449 23.454 72.665 24.498 73.259 25.182C73.673 25.65 74.267 25.956 75.095 25.956ZM82.2695 17.91H83.8355V27H82.2695V17.91ZM82.1615 14.004H83.9435V15.804H82.1615V14.004ZM90.0079 27.252C88.0279 27.252 86.7499 25.974 86.7499 23.904V17.91H88.2799V23.688C88.2799 25.038 88.9099 25.866 90.2419 25.866C91.8079 25.866 92.5999 24.606 92.5999 22.806V17.91H94.1299V27H92.7979L92.6899 25.524C92.3119 26.64 91.0879 27.252 90.0079 27.252ZM97.2988 27V17.91H98.6308L98.7748 19.242C99.2608 18.18 100.323 17.658 101.367 17.658C102.735 17.658 103.689 18.27 104.085 19.386C104.589 18.252 105.777 17.658 106.929 17.658C109.017 17.658 110.007 18.99 110.007 21.006V27H108.477V21.204C108.477 19.944 107.973 19.044 106.623 19.044C105.237 19.044 104.391 20.268 104.391 21.798V27H102.879V21.258C102.879 19.998 102.429 19.044 101.061 19.044C99.7108 19.044 98.8288 20.322 98.8288 21.798V27H97.2988Z" fill="#070807"/>
</svg>
