<svg width="105" height="42" viewBox="0 0 105 42" fill="none" xmlns="http://www.w3.org/2000/svg">
<path d="M0 21C0 9.40202 9.40202 0 21 0H84C95.598 0 105 9.40202 105 21C105 32.598 95.598 42 84 42H21C9.40202 42 0 32.598 0 21Z" fill="#E5EFF8"/>
<path d="M26.8571 21.8571L26 22.7181L25.1429 21.8609L17.8609 14.579L17 13.7181L18.7181 12L19.5752 12.8609L26 19.2819L32.4248 12.8609L33.2819 12L35 13.7181L34.1391 14.5752L26.8571 21.8571ZM26.8571 29.1391L26 30L25.1429 29.1429L17.8609 21.8609L17 21L18.7181 19.2819L19.5752 20.1391L26 26.5638L32.4248 20.1429L33.2819 19.2819L35 21L34.1429 21.8571L26.8609 29.1391H26.8571Z" fill="#5291D2"/>
<path d="M53.81 14.238H55.358V27H53.558L47.294 16.146V27H45.746V14.238H47.852L53.81 24.552V14.238ZM62.1918 27.252C61.0038 27.252 60.0498 26.838 59.3658 26.19C58.3398 25.218 58.0338 23.886 58.0338 22.446C58.0338 21.006 58.3398 19.692 59.3658 18.72C60.0498 18.072 61.0038 17.658 62.1918 17.658C63.3798 17.658 64.3338 18.072 65.0178 18.72C66.0438 19.692 66.3498 21.006 66.3498 22.446C66.3498 23.886 66.0438 25.218 65.0178 26.19C64.3338 26.838 63.3798 27.252 62.1918 27.252ZM62.1918 25.938C62.9298 25.938 63.5238 25.668 63.9018 25.29C64.5678 24.624 64.7838 23.652 64.7838 22.446C64.7838 21.24 64.5678 20.286 63.9018 19.62C63.5238 19.242 62.9298 18.972 62.1918 18.972C61.4538 18.972 60.8598 19.242 60.4818 19.62C59.8158 20.286 59.5998 21.24 59.5998 22.446C59.5998 23.652 59.8158 24.624 60.4818 25.29C60.8598 25.668 61.4538 25.938 62.1918 25.938ZM68.9629 27V17.91H70.2949L70.4209 19.314C70.8889 18.234 72.2029 17.658 73.2289 17.658C75.2989 17.658 76.4329 18.9 76.4329 21.006V27H74.9029V21.222C74.9029 19.89 74.2909 19.044 72.9409 19.044C71.4109 19.044 70.4929 20.376 70.4929 22.068V27H68.9629ZM83.2718 27.252C81.9578 27.252 80.8238 26.73 80.0858 25.884C79.3118 25.002 78.9338 23.796 78.9338 22.5C78.9338 21.402 79.1318 20.43 79.6538 19.584C80.3198 18.486 81.5438 17.658 83.1638 17.658C85.6478 17.658 87.1598 19.638 87.1598 22.05C87.1598 22.338 87.1598 22.698 87.1238 22.968H80.5358C80.5358 24.66 81.5618 25.902 83.2898 25.902C84.3338 25.902 85.1798 25.38 85.4858 24.3H87.0158C86.7638 26.028 85.1258 27.252 83.2718 27.252ZM80.5718 21.654H85.5938C85.5938 20.088 84.7298 18.954 83.1278 18.954C81.4538 18.954 80.6078 20.322 80.5718 21.654Z" fill="#070807"/>
</svg>
