<svg width="28" height="28" viewBox="0 0 28 28" fill="none" xmlns="http://www.w3.org/2000/svg">
<path d="M0 14C0 6.26801 6.26801 0 14 0C21.732 0 28 6.26801 28 14C28 21.732 21.732 28 14 28C6.26801 28 0 21.732 0 14Z" fill="#E5EFF8"/>
<g clip-path="url(#clip0_59_482)">
<path d="M14.5714 14.5714L14 15.1454L13.4286 14.574L8.57396 9.71934L8 9.14539L9.14539 8L9.71681 8.57396L14 12.8546L18.2832 8.57396L18.8546 8L20 9.14539L19.426 9.71681L14.5714 14.5714ZM14.5714 19.426L14 20L13.4286 19.4286L8.57396 14.574L8 14L9.14539 12.8546L9.71681 13.426L14 17.7092L18.2832 13.4286L18.8546 12.8546L20 14L19.4286 14.5714L14.574 19.426H14.5714Z" fill="#5291D2"/>
</g>
<defs>
<clipPath id="clip0_59_482">
<rect width="12" height="12" fill="white" transform="translate(8 8)"/>
</clipPath>
</defs>
</svg>
