<svg width="1130" height="198" viewBox="0 0 1130 198" fill="none" xmlns="http://www.w3.org/2000/svg">
<path fill-rule="evenodd" clip-rule="evenodd" d="M1083.94 7.75847C1092.13 10.5863 1108.37 14.7193 1116.78 16.8221L1122.15 71.784C1122.01 76.787 1119.32 81.355 1114.97 83.8205L1083.94 101.295L1052.9 83.8205C1048.55 81.355 1045.8 76.787 1045.73 71.784L1051.09 16.8221C1059.5 14.7193 1075.82 10.5863 1083.94 7.75847ZM1083.94 0C1076.18 3.33542 1044.35 11.0214 1044.35 11.0214L1038.47 71.4937C1038.47 79.2523 1042.61 86.3582 1049.35 90.1288L1083.94 109.633L1118.52 90.1288C1125.27 86.3582 1129.4 79.1797 1129.4 71.4937L1123.53 11.0214C1123.53 11.0214 1091.77 3.40793 1083.94 0ZM190.989 149.587C189.031 174.385 207.086 195.92 231.376 197.805H231.521C262.338 200.416 275.897 176.27 276.115 167.859H252.477C251.097 173.37 242.833 179.461 232.826 178.518C225.286 177.938 219.05 174.095 215.207 167.931L277.782 147.194C275.39 123.919 259.147 109.562 238.482 107.967C214.192 106.009 192.947 124.789 190.989 149.587ZM253.089 136.187C249.46 131.072 243.749 127.832 236.742 127.254C224.125 126.239 213.177 135.448 211.509 150.022L253.089 136.187ZM367.33 109.634H389.372V195.557H367.33V109.634ZM75.4818 160.898V152.705H97.3795V159.738C97.3795 181.491 82.6602 197.66 59.675 197.66C36.6895 197.66 21.8252 181.418 21.8252 159.738V130.372H0V109.707H21.8977V87.8817H43.9405V109.707H96.6545V130.372H43.9405V160.898C43.9405 168.802 49.016 176.778 59.82 176.778C70.6237 176.778 75.4818 168.729 75.4818 160.898ZM161.55 195.63H183.593V195.557V145.309C183.593 122.613 169.599 107.459 148.571 107.459C141.03 107.459 134.359 109.924 128.849 114.13V71.422H106.661V195.63H128.849V145.381C128.849 135.665 135.664 128.994 145.526 128.994C159.882 128.994 161.55 140.378 161.55 145.381V195.63ZM281.117 167.641C283.797 186.111 299.934 197.635 321.794 197.66C343.799 197.634 359.427 185.605 359.427 168.584C359.427 149.877 344.128 145.164 322.737 141.683C312.005 140.016 305.698 138.493 305.698 133.997C305.698 130.879 309.902 127.181 320.055 127.181C328.247 127.181 333.108 130.372 334.412 134.36H357.253C354.425 118.118 339.777 107.459 320.055 107.459C295.185 107.459 283.365 121.526 283.365 135.013C283.365 154.228 303.885 158.433 319.258 160.753C334.34 163.146 337.312 164.959 337.312 169.962C337.312 174.965 330.64 177.648 321.795 177.648C315.27 177.648 306.422 174.965 303.45 167.641H281.117ZM396.335 167.641C399.014 186.111 415.152 197.635 437.012 197.66C459.017 197.634 474.645 185.605 474.645 168.584C474.645 149.877 459.345 145.164 437.955 141.683C427.223 140.016 420.915 138.493 420.915 133.997C420.915 130.879 425.12 127.181 435.272 127.181C443.465 127.181 448.323 130.372 449.628 134.36H472.468C469.64 118.118 454.995 107.459 435.272 107.459C410.4 107.459 398.583 121.526 398.583 135.013C398.583 154.228 419.102 158.433 434.475 160.753C449.555 163.146 452.527 164.959 452.527 169.962C452.527 174.965 445.857 177.648 437.012 177.648C430.485 177.648 421.64 174.965 418.667 167.641H396.335ZM563.105 195.557H576.738V71.4942H562.598V122.685C556.435 114.347 545.775 107.531 533.448 107.531C508.795 107.531 490.45 127.834 490.45 152.704C490.45 177.575 508.795 197.732 533.448 197.732C546.065 197.732 557.088 190.554 563.105 181.708V195.557ZM504.518 152.922C504.518 135.085 517.208 120.728 533.375 120.728C549.182 120.728 562.525 135.447 562.525 152.922C562.525 170.396 549.545 184.753 533.375 184.753C517.208 184.753 504.518 170.759 504.518 152.922ZM673.825 168.873C667.807 187.218 653.16 197.587 633.292 197.587C608.64 197.587 589.28 177.937 589.28 152.703C589.28 127.47 608.64 107.53 632.495 107.53C654.682 107.53 676 125.875 675.855 156.401H603.638C605.45 174.239 619.155 184.753 633.292 184.753C645.475 184.753 654.103 178.952 658.818 168.873H673.825ZM660.195 143.712C656.715 129.718 645.04 120.365 632.495 120.365C620.677 120.365 608.133 129.066 604.508 143.712H660.195ZM723.205 109.998H703.7V106.662C703.7 100.789 704.715 92.958 709.065 88.97C712.4 85.7798 717.042 84.6195 723.568 85.127V72.293C713.56 71.1328 705.585 73.3083 699.568 78.8188C693.04 84.6195 689.705 94.1908 689.705 106.662V109.998H678.032V123.484H689.705V195.486H703.7V123.484H723.205V109.998ZM808.91 168.873C802.892 187.218 788.245 197.587 768.378 197.587C743.725 197.587 724.365 177.937 724.365 152.703C724.365 127.47 743.725 107.53 767.58 107.53C789.768 107.53 811.085 125.875 810.94 156.401H738.723C740.535 174.239 754.238 184.753 768.378 184.753C780.56 184.753 789.188 178.952 793.9 168.873H808.91ZM795.277 143.712C791.797 129.718 780.125 120.365 767.58 120.365C755.763 120.365 743.218 129.066 739.593 143.712H795.277ZM880.695 195.557H894.688H894.76V143.857C894.76 122.54 882.798 107.53 861.77 107.53C851.4 107.53 842.555 111.881 836.755 119.059V109.706H823.05V195.557H837.19V143.06C837.19 130.153 845.963 120.51 859.668 120.51C873.37 120.51 880.695 130.153 880.695 143.35V195.557ZM944.213 197.732C923.33 197.732 908.175 186.565 905.855 168.365H920.213C922.025 178.372 931.885 184.535 944.213 184.535C957.553 184.535 965.748 178.009 965.748 170.541C965.748 164.522 963.428 160.027 942.4 157.199C921.518 154.226 908.9 149.223 908.9 133.054C908.9 120.727 919.56 107.53 942.545 107.53C962.413 107.53 975.753 117.537 977.565 134.359H963.21C961.18 125.223 953.058 120.51 942.545 120.51C931.233 120.51 923.04 125.875 923.04 132.546C923.04 138.71 927.898 140.885 944.72 143.568C963.718 146.54 979.38 150.238 979.38 169.743C979.38 186.928 964.733 197.732 944.213 197.732ZM1029.63 197.587C1049.5 197.587 1064.14 187.218 1070.16 168.873H1055.15C1050.44 178.952 1041.81 184.753 1029.63 184.753C1015.49 184.753 1001.79 174.239 999.973 156.401H1072.19C1072.34 125.875 1051.02 107.53 1028.83 107.53C1004.98 107.53 985.615 127.47 985.615 152.703C985.615 177.937 1004.98 197.587 1029.63 197.587ZM1028.83 120.365C1041.38 120.365 1053.05 129.718 1056.53 143.712H1000.84C1004.47 129.066 1017.01 120.365 1028.83 120.365ZM1108.59 46.6947L1093.22 47.0573L1101.19 33.788L1091.48 28.2048L1084.08 41.8365L1076.47 28.1322L1066.82 33.8605L1074.94 47.1297L1059.36 46.7672L1059.28 58.006L1074.94 57.716L1066.9 70.7675L1076.61 76.4232L1084.01 63.0092L1091.48 76.3508L1101.19 70.8402L1093.14 57.6435L1108.66 58.006L1108.59 46.6947Z" fill="white"/>
</svg>
