<svg width="166" height="200" viewBox="0 0 166 200" fill="none" xmlns="http://www.w3.org/2000/svg">
<g id="Color=Black" clip-path="url(#clip0_3_64)">
<path id="Vector" d="M82.9366 14.1534C97.8837 19.3122 127.513 26.8519 142.857 30.6878L152.645 130.952C152.381 140.079 147.487 148.413 139.55 152.91L82.9366 184.788L26.3228 152.91C18.3863 148.413 13.3598 140.079 13.2275 130.952L23.0159 30.6878C38.3599 26.8519 68.1217 19.3122 82.9366 14.1534ZM82.9366 0C68.7831 6.08466 10.7143 20.1058 10.7143 20.1058L0 130.423C0 144.577 7.53968 157.54 19.8413 164.418L82.9366 200L146.032 164.418C158.333 157.54 165.873 144.444 165.873 130.423L155.159 20.1058C155.159 20.1058 97.2223 6.21693 82.9366 0Z" fill="#070807"/>
<path id="Vector_2" d="M99.868 85.8441L127.91 85.1827L128.042 105.818L99.7356 105.156L114.418 129.23L96.6933 139.283L83.069 114.945L69.5769 139.416L51.8521 129.098L66.5346 105.289L37.9631 105.818L38.0955 85.315L66.5346 85.9764L51.7199 61.77L69.3125 51.3203L83.2012 76.3203L96.6933 51.4526L114.418 61.6378L99.868 85.8441Z" fill="#070807"/>
</g>
<defs>
<clipPath id="clip0_3_64">
<rect width="166" height="200" fill="white"/>
</clipPath>
</defs>
</svg>
